<svg width="40" height="40" viewBox="0 0 40 40" fill="none" xmlns="http://www.w3.org/2000/svg">
<path d="M8.33333 14.9999V16.6666M8.33333 28.3333V26.6666M11.6667 31.6666H13.3333M28.3333 28.3333C28.9926 28.3333 29.6371 28.5287 30.1852 28.895C30.7334 29.2613 31.1606 29.7819 31.4129 30.391C31.6652 31.0001 31.7312 31.6703 31.6026 32.3169C31.474 32.9635 31.1565 33.5574 30.6904 34.0236C30.2242 34.4898 29.6302 34.8073 28.9836 34.9359C28.337 35.0645 27.6668 34.9985 27.0577 34.7462C26.4486 34.4939 25.928 34.0667 25.5618 33.5185C25.1955 32.9703 25 32.3259 25 31.6666M28.3333 28.3333C27.4493 28.3333 26.6014 28.6844 25.9763 29.3096C25.3512 29.9347 25 30.7825 25 31.6666M28.3333 28.3333V26.6666M25 31.6666H23.3333M8.33333 14.9999C9.21739 14.9999 10.0652 14.6487 10.6904 14.0236C11.3155 13.3985 11.6667 12.5506 11.6667 11.6666C11.6667 10.7825 11.3155 9.93468 10.6904 9.30956C10.0652 8.68444 9.21739 8.33325 8.33333 8.33325C7.44928 8.33325 6.60143 8.68444 5.97631 9.30956C5.35119 9.93468 5 10.7825 5 11.6666C5 12.5506 5.35119 13.3985 5.97631 14.0236C6.60143 14.6487 7.44928 14.9999 8.33333 14.9999V14.9999ZM11.6667 31.6666C11.6667 30.7825 11.3155 29.9347 10.6904 29.3096C10.0652 28.6844 9.21739 28.3333 8.33333 28.3333C7.44928 28.3333 6.60143 28.6844 5.97631 29.3096C5.35119 29.9347 5 30.7825 5 31.6666C5 32.5506 5.35119 33.3985 5.97631 34.0236C6.60143 34.6487 7.44928 34.9999 8.33333 34.9999C9.21739 34.9999 10.0652 34.6487 10.6904 34.0236C11.3155 33.3985 11.6667 32.5506 11.6667 31.6666Z" stroke="black" stroke-width="2" stroke-linecap="round" stroke-linejoin="round"/>
<path d="M8.33335 23.3333C9.25383 23.3333 10 22.5871 10 21.6667C10 20.7462 9.25383 20 8.33335 20C7.41288 20 6.66669 20.7462 6.66669 21.6667C6.66669 22.5871 7.41288 23.3333 8.33335 23.3333Z" fill="black"/>
<path d="M18.3334 33.3333C19.2538 33.3333 20 32.5871 20 31.6667C20 30.7462 19.2538 30 18.3334 30C17.4129 30 16.6667 30.7462 16.6667 31.6667C16.6667 32.5871 17.4129 33.3333 18.3334 33.3333Z" fill="black"/>
<path d="M35 11.6667C35 16.0183 28.3334 21.6667 28.3334 21.6667C28.3334 21.6667 21.6667 16.0183 21.6667 11.6667C21.6667 7.315 24.65 5 28.3334 5C32.0167 5 35 7.315 35 11.6667Z" stroke="black" stroke-width="2" stroke-linecap="round" stroke-linejoin="round"/>
<path d="M28.3334 13.3333C29.2538 13.3333 30 12.5871 30 11.6667C30 10.7462 29.2538 10 28.3334 10C27.4129 10 26.6667 10.7462 26.6667 11.6667C26.6667 12.5871 27.4129 13.3333 28.3334 13.3333Z" fill="black"/>
</svg>
