<svg width="29" height="29" viewBox="0 0 29 29" fill="none" xmlns="http://www.w3.org/2000/svg">
<path d="M22.5464 0C20.1942 1.88736 18.6168 4.08552 17.3505 6.40657C18.1256 6.8811 18.921 7.32186 19.7343 7.72759L25.2268 9.83084C26.0746 10.0645 26.9317 10.2629 27.796 10.4255C28.6311 7.77436 29.0259 5.12268 28.9987 2.47163L22.5464 0ZM6.03299 0.239736L6.9696 4.25389L11.237 5.26597L10.4329 1.27913L6.03299 0.239736ZM4.94408 0.662857L2.64004 3.60055L3.4049 7.43292L5.84924 4.54219L4.94408 0.662857ZM6.66361 5.36786L4.3678 8.08466L7.59637 8.56153C8.04248 8.43182 8.49054 8.30891 8.94041 8.19285L10.6498 6.31401L6.66361 5.36786ZM17.2204 7.67538L17.7636 11.3154C18.1294 11.6898 18.4838 12.0727 18.8238 12.4656L24.3336 14.5761L27.1384 11.4732C23.7517 10.7874 20.435 9.56904 17.2204 7.67538ZM12.8825 8.5084C9.82973 9.08611 6.79636 9.86154 3.77055 11.1433C6.29727 13.2984 8.52679 15.6145 10.3303 18.1586L19.5648 15.3975C17.9226 12.811 15.4799 10.6387 12.8825 8.5084ZM2.56664 11.6357C1.29062 14.7425 0.237044 17.8928 0 21.3473C1.51851 24.6154 4.3449 26.9467 6.85535 28.7445L9.48425 18.9543C7.62905 16.3065 5.27253 13.8913 2.56664 11.6357ZM20.228 16.4046L10.5927 19.2858L7.98425 29C11.2129 28.5147 14.4203 27.6485 17.6283 26.0181C19.1726 22.7113 19.5164 19.856 20.228 16.4046Z" fill="black"/>
</svg>
