<svg width="52" height="52" viewBox="0 0 52 52" fill="none" xmlns="http://www.w3.org/2000/svg">
<path d="M13 45.4999C11.8084 45.4999 10.7886 45.076 9.94069 44.2281C9.09135 43.3787 8.66669 42.3582 8.66669 41.1666V21.6666C8.66669 20.9805 8.82052 20.3305 9.12819 19.7166C9.43441 19.1027 9.85835 18.5971 10.4 18.1999L23.4 8.44992C23.7972 8.16103 24.2125 7.94436 24.6459 7.79992C25.0792 7.65547 25.5306 7.58325 26 7.58325C26.4695 7.58325 26.9209 7.65547 27.3542 7.79992C27.7875 7.94436 28.2028 8.16103 28.6 8.44992L41.6 18.1999C42.1417 18.5971 42.5664 19.1027 42.874 19.7166C43.1802 20.3305 43.3334 20.9805 43.3334 21.6666V41.1666C43.3334 42.3582 42.9094 43.3787 42.0615 44.2281C41.2122 45.076 40.1917 45.4999 39 45.4999H30.3334V30.3333H21.6667V45.4999H13Z" fill="#212121"/>
</svg>
