<svg width="40" height="40" viewBox="0 0 40 40" fill="none" xmlns="http://www.w3.org/2000/svg">
<path d="M9.24998 29.3749C11 28.1527 12.7361 27.2152 14.4583 26.5624C16.1805 25.9096 18.0278 25.5833 20 25.5833C21.9722 25.5833 23.8264 25.9096 25.5625 26.5624C27.2986 27.2152 29.0416 28.1527 30.7916 29.3749C32.0139 27.8749 32.8819 26.361 33.3958 24.8333C33.9097 23.3055 34.1666 21.6944 34.1666 19.9999C34.1666 15.9721 32.8125 12.6041 30.1041 9.89575C27.3958 7.18742 24.0278 5.83325 20 5.83325C15.9722 5.83325 12.6041 7.18742 9.89581 9.89575C7.18748 12.6041 5.83331 15.9721 5.83331 19.9999C5.83331 21.6944 6.0972 23.3055 6.62498 24.8333C7.15276 26.361 8.02776 27.8749 9.24998 29.3749ZM20 21.2499C18.3889 21.2499 17.0347 20.7013 15.9375 19.6041C14.8403 18.5069 14.2916 17.1527 14.2916 15.5416C14.2916 13.9305 14.8403 12.5763 15.9375 11.4791C17.0347 10.3819 18.3889 9.83325 20 9.83325C21.6111 9.83325 22.9653 10.3819 24.0625 11.4791C25.1597 12.5763 25.7083 13.9305 25.7083 15.5416C25.7083 17.1527 25.1597 18.5069 24.0625 19.6041C22.9653 20.7013 21.6111 21.2499 20 21.2499ZM20 36.6666C17.7222 36.6666 15.5694 36.2291 13.5416 35.3541C11.5139 34.4791 9.74304 33.2846 8.22915 31.7708C6.71526 30.2569 5.52081 28.486 4.64581 26.4583C3.77081 24.4305 3.33331 22.2777 3.33331 19.9999C3.33331 17.6944 3.77081 15.5346 4.64581 13.5208C5.52081 11.5069 6.71526 9.74297 8.22915 8.22908C9.74304 6.7152 11.5139 5.52075 13.5416 4.64575C15.5694 3.77075 17.7222 3.33325 20 3.33325C22.3055 3.33325 24.4653 3.77075 26.4791 4.64575C28.493 5.52075 30.2569 6.7152 31.7708 8.22908C33.2847 9.74297 34.4791 11.5069 35.3541 13.5208C36.2291 15.5346 36.6666 17.6944 36.6666 19.9999C36.6666 22.2777 36.2291 24.4305 35.3541 26.4583C34.4791 28.486 33.2847 30.2569 31.7708 31.7708C30.2569 33.2846 28.493 34.4791 26.4791 35.3541C24.4653 36.2291 22.3055 36.6666 20 36.6666ZM20 34.1666C21.5278 34.1666 23.0208 33.9444 24.4791 33.4999C25.9375 33.0555 27.375 32.2777 28.7916 31.1666C27.375 30.1666 25.9305 29.4027 24.4583 28.8749C22.9861 28.3471 21.5 28.0833 20 28.0833C18.5 28.0833 17.0139 28.3471 15.5416 28.8749C14.0694 29.4027 12.625 30.1666 11.2083 31.1666C12.625 32.2777 14.0625 33.0555 15.5208 33.4999C16.9791 33.9444 18.4722 34.1666 20 34.1666ZM20 18.7499C20.9444 18.7499 21.7153 18.4513 22.3125 17.8541C22.9097 17.2569 23.2083 16.486 23.2083 15.5416C23.2083 14.5971 22.9097 13.8263 22.3125 13.2291C21.7153 12.6319 20.9444 12.3333 20 12.3333C19.0555 12.3333 18.2847 12.6319 17.6875 13.2291C17.0903 13.8263 16.7916 14.5971 16.7916 15.5416C16.7916 16.486 17.0903 17.2569 17.6875 17.8541C18.2847 18.4513 19.0555 18.7499 20 18.7499Z" fill="#212121"/>
</svg>
