<svg width="30" height="30" viewBox="0 0 30 30" fill="none" xmlns="http://www.w3.org/2000/svg">
<path d="M21.1875 14.9376C22.2464 13.8796 23.016 12.5675 23.4227 11.127C23.8293 9.68642 23.8594 8.1656 23.51 6.71008L26.6287 5.37258C26.7239 5.33181 26.8276 5.3153 26.9307 5.32451C27.0337 5.33373 27.1329 5.36839 27.2193 5.42539C27.3056 5.48239 27.3765 5.55994 27.4255 5.65108C27.4745 5.74222 27.5001 5.84411 27.5 5.94758V23.7501L18.75 27.5001L11.25 23.7501L3.37125 27.1263C3.27614 27.1671 3.1724 27.1836 3.06933 27.1744C2.96627 27.1652 2.8671 27.1305 2.78073 27.0735C2.69437 27.0165 2.62351 26.939 2.57451 26.8478C2.52551 26.7567 2.49991 26.6548 2.5 26.5513V8.75008L6.41125 7.07383C6.13605 8.48081 6.21114 9.93387 6.62988 11.305C7.04863 12.6761 7.79818 13.9232 8.8125 14.9363L15 21.1251L21.1875 14.9376ZM19.42 13.1701L15 17.5876L10.58 13.1688C9.70609 12.2947 9.111 11.181 8.86997 9.96871C8.62895 8.75637 8.75281 7.49979 9.22591 6.35785C9.69901 5.21591 10.5001 4.23989 11.5279 3.5532C12.5556 2.86651 13.7639 2.5 15 2.5C16.2361 2.5 17.4444 2.86651 18.4721 3.5532C19.4999 4.23989 20.301 5.21591 20.7741 6.35785C21.2472 7.49979 21.3711 8.75637 21.13 9.96871C20.889 11.181 20.2939 12.2947 19.42 13.1688V13.1701Z" fill="black"/>
</svg>
